{"title":"Push (2009) 720p Blu-Ray x264.Dual-Audio Hindi.DTS.AAC.Esubs","uid":8844860,"size":877186402,"categoryP":"video","categoryS":"hd___movies","magnet":"?xt=urn:btih:fcbb9c4ea67b7978f0141c7c4f8cb586be9b8050&amp;dn=Push+%282009%29+720p+Blu-Ray+x264.Dual-Audio+Hindi.DTS.AAC.Esubs&amp;tr=udp%3A%2F%2Ftracker.openbittorrent.com%3A80&amp;tr=udp%3A%2F%2Fopen.demonii.com%3A1337&amp;tr=udp%3A%2F%2Ftracker.coppersurfer.tk%3A6969&amp;tr=udp%3A%2F%2Fexodus.desync.com%3A6969","seeders":1,"leechers":2,"uploader":"manucs2004","files":-1,"time":1377351685,"description":"IMDB Rating: 6.0/10.0\n\n\nGENRE: Action | Sci-Fi | Thriller\n\n\n\nGeneral\nUnique ID : 220809098414891190869499023734172059783 (0xA61E49141B0F77ABB32325B8B6048887)\nComplete name : Push (2009) 720p Blu-Ray x264 [Dual-Audio] [English + Hindi] - Mafiaking.mkv\nFormat : Matroska\nFormat version : Version 4 / Version 2\nFile size : 828 MiB\nDuration : 1h 51mn\nOverall bit rate : 1 038 Kbps\nMovie name : Push (2009) 720p Blu-Ray x264 [Dual-Audio] [English + Hindi] - Mafiaking\nEncoded date : UTC 2013-08-24 10:31:20\nWriting application : mkvmerge v6.1.0 ('Old Devil') built on Mar 2 2013 14:32:37\nWriting library : libebml v1.3.0 + libmatroska v1.4.0\n\n\n\nvlcfile.png\n\n\nVideo\nID : 1\nFormat : AVC\nFormat/Info : Advanced Video Codec\nFormat profile : &lt;a class=&quot;__cf_email__&quot; href=&quot;/cdn-cgi/l/email-protection&quot; data-cfemail=&quot;b3fbdad4dbf3ff809d82&quot;&gt;[email&amp;#160;protected]&lt;/a&gt;&lt;script cf-hash='f9e31' type=&quot;text/javascript&quot;&gt;\n/* &lt;![CDATA[ */!function(){try{var t=&quot;currentScript&quot;in document?document.currentScript:function(){for(var t=document.getElementsByTagName(&quot;script&quot;),e=t.length;e--;)if(t[e].getAttribute(&quot;cf-hash&quot;))return t[e]}();if(t&amp;&amp;t.previousSibling){var e,r,n,i,c=t.previousSibling,a=c.getAttribute(&quot;data-cfemail&quot;);if(a){for(e=&quot;&quot;,r=parseInt(a.substr(0,2),16),n=2;a.length-n;n+=2)i=parseInt(a.substr(n,2),16)^r,e+=String.fromCharCode(i);e=document.createTextNode(e),c.parentNode.replaceChild(e,c)}}}catch(u){}}();/* ]]&gt; */&lt;/script&gt;\nFormat settings, CABAC : Yes\nFormat settings, ReFrames : 5 frames\nCodec ID : V_MPEG4/ISO/AVC\nDuration : 1h 51mn\nBit rate : 846 Kbps\nWidth : 1 280 pixels\nHeight : 544 pixels\nDisplay aspect ratio : 2.35:1\nFrame rate mode : Constant\nFrame rate : 23.976 fps\nColor space : YUV\nChroma subsampling : 4:2:0\nBit depth : 8 bits\nScan type : Progressive\nBits/(Pixel*Frame) : 0.051\nStream size : 658 MiB (80%)\nTitle : Mafiaking\nWriting library : x264 core 116 r2074 2641b9e\n\nLanguage : English\nDefault : Yes\nForced : No\n\n\nmusicfile1.png\n\nAudio #1\nID : 2\nFormat : AC-3\nFormat/Info : Audio Coding 3\nMode extension : CM (complete main)\nFormat settings, Endianness : Big\nCodec ID : A_AC3\nDuration : 1h 51mn\nBit rate mode : Constant\nBit rate : 128 Kbps\nChannel(s) : 2 channels\nChannel positions : Front: L R\nSampling rate : 48.0 KHz\nBit depth : 16 bits\nCompression mode : Lossy\nDelay relative to video : 1s 200ms\nStream size : 102 MiB (12%)\nTitle : Mafiaking\nLanguage : Hindi\nDefault : Yes\nForced : No\n\n\n\nmusicfile1.png\n\n\nAudio #2\nID : 3\nFormat : MPEG Audio\nFormat version : Version 2\nFormat profile : Layer 3\nMode : Joint stereo\nMode extension : MS Stereo\nCodec ID : A_MPEG/L3\nCodec ID/Hint : MP3\nDuration : 1h 51mn\nBit rate mode : Constant\nBit rate : 64.0 Kbps\nChannel(s) : 2 channels\nSampling rate : 24.0 KHz\nCompression mode : Lossy\nStream size : 51.0 MiB (6%)\nTitle : Mafiaking\nWriting library : LAME3.99r\n\nLanguage : English\nDefault : No\nForced : No\n\n\n\n\n\n\nSAMPLE WITH IN TORRENT (IN DUAL AUDIO)\n\n\n\nscreensx.png\n\n\n\n18265845fa7b6906dc9e4e6829243634648d120b.jpg\n\n1826584416078fc0ab8f7c06f7a0f53ef34e2340.jpg\n\n182658430dea14d6932942d6ae302894c3e0db8f.jpg\n\n182658422e128cb03b60dd66df9079a7372ffda1.jpg\n\n18265841b896da985adbf459847fc58a68cc10c3.jpg\n\n18265840a10b64b6eb3ca86439f222da541abf7a.jpg\n\n18265839d82b25538ee25e772616a872f588f221.jpg\n\n182658387b50dacd1bd90ffbe134b4854238c614.jpg\n\n18265837e071d3a71b48ee44f4f7718f067edc30.jpg\n\n18265836f1beb666cea080c273ddddb446a6ac61.jpg\n\n18265835bd075214cadf78f7b24a0c77e31e8618.jpg\n\n18265834ec5f1c9524483fb8d79bda4ea47c29ef.jpg\n\n1826583361d2e5c149f7846aac4db704812ce9e7.jpg\n\n182658328edd16fd0178d97a26928ca131907f85.jpg\n\n182658314636807abb3156a5b1ed9f9d3e168cbe.jpg\n\n18265830f6eaa6d32989bb99529fdf36ddb4bae5.jpg\n\n18265829c29cec31a3665884da62bc85542b2d3b.jpg\n\nSpecial Thanks TO Team RANS CLUBZ For Hindi Audio.\n\n\nRespects To ::- SaM,oziman,Taker And All The Staff's Of Extratorrent And Team EXD!!!\n\nGreetz To ::- K@rtik | Sonic | @King | Abdullah | Imkhan | Sophie | Rohit And All Other Members of Team EXD!!","torrent":{"xt":"urn:btih:fcbb9c4ea67b7978f0141c7c4f8cb586be9b8050","amp;dn":"Push+%282009%29+720p+Blu-Ray+x264.Dual-Audio+Hindi.DTS.AAC.Esubs","amp;tr":["udp%3A%2F%2Ftracker.openbittorrent.com%3A80","udp%3A%2F%2Fopen.demonii.com%3A1337","udp%3A%2F%2Ftracker.coppersurfer.tk%3A6969","udp%3A%2F%2Fexodus.desync.com%3A6969"],"infoHash":"fcbb9c4ea67b7978f0141c7c4f8cb586be9b8050","infoHashBuffer":{"type":"Buffer","data":[252,187,156,78,166,123,121,120,240,20,28,124,79,140,181,134,190,155,128,80]},"announce":[],"urlList":[]}}